<svg width="435" height="292" viewBox="0 0 435 292" fill="none" xmlns="http://www.w3.org/2000/svg">
<path d="M389.133 105.084L360.044 220.526L329.332 105.084H274.891L244.229 220.526L214.572 104.992H99.454L110.913 147.858H165.714C157.297 176.899 134.93 197.722 108.725 197.722C75.3296 197.722 48.1627 163.918 48.1627 122.377C48.1627 116.049 48.8013 109.904 49.9853 104.034H49.9494C55.1733 78.5027 70.8951 58.1371 91.0298 50.5052L70.5291 7.77274C66.5395 9.464 62.6574 11.4019 58.9046 13.5935L78.9389 55.3535L50.1073 19.3438C46.1105 22.2401 42.2859 25.4253 38.6694 28.8712L64.5016 61.132L32.3548 35.3826C28.7168 39.4345 25.3084 43.7613 22.2013 48.363L49.2319 70.0182L18.9006 53.5354C16.1523 58.0666 13.6695 62.8233 11.4738 67.7702L37.7796 82.0684L9.29959 72.9497C6.96034 78.8761 5.03728 85.0422 3.54475 91.4197L30.2811 99.9817L2.9133 94.323C1.03329 103.35 0 112.744 0 122.405C0 190.027 48.7726 245.042 108.718 245.042C142.178 245.042 172.143 227.89 192.105 200.985L216.84 291.827H267.744L302.911 164.447L335.489 291.827H386.809L435 105.112H389.126L389.133 105.084Z" fill="#FF0000"/>
<path d="M150.028 67.7491L158.832 60.4766L185.648 35.9463C184.363 34.4946 183.05 33.0712 181.701 31.69L146.461 63.9296C147.689 65.1558 148.887 66.4172 150.035 67.7561L150.028 67.7491Z" fill="#FF0000"/>
<path d="M103.687 47.5104L94.9978 0.937286C91.2665 1.46581 87.5926 2.22687 83.9832 3.17116L92.7016 49.9204C96.2464 48.7154 99.9131 47.8979 103.68 47.5104H103.687Z" fill="#FF0000"/>
<path d="M139.637 57.982L166.603 18.7518C164.809 17.4834 162.972 16.2924 161.114 15.1438L134.169 54.3388C136.143 55.4944 137.958 56.7277 139.637 57.982Z" fill="#FF0000"/>
<path d="M115.599 47.764L118.383 0.45805C115.706 0.190267 113.015 0.0493284 110.31 0L107.533 47.2848C107.913 47.2778 108.287 47.2566 108.667 47.2566C111.071 47.2566 113.381 47.4469 115.606 47.764H115.599Z" fill="#FF0000"/>
<path d="M143.462 6.41964C141.173 5.55287 138.862 4.74248 136.523 4.04483L120.385 48.673C122.839 49.279 125.157 50.0612 127.353 50.9562L143.462 6.41964Z" fill="#FF0000"/>
</svg>
